<svg width="123" height="116" viewBox="0 0 123 116" fill="none" xmlns="http://www.w3.org/2000/svg">
<ellipse cx="61.5" cy="57.727" rx="61.5" ry="57.727" fill="#F0ECEC"/>
<path d="M59.4531 21.8989H55.7188V30.2271H51.0312V7.47705H59.4844C62.1719 7.47705 64.2448 8.07601 65.7031 9.27393C67.1615 10.4718 67.8906 12.1646 67.8906 14.3521C67.8906 15.9041 67.5521 17.201 66.875 18.2427C66.2083 19.2739 65.1927 20.0968 63.8281 20.7114L68.75 30.0083V30.2271H63.7188L59.4531 21.8989ZM55.7188 18.1021H59.5C60.6771 18.1021 61.5885 17.8052 62.2344 17.2114C62.8802 16.6073 63.2031 15.7791 63.2031 14.7271C63.2031 13.6541 62.8958 12.8104 62.2812 12.1958C61.6771 11.5812 60.7448 11.2739 59.4844 11.2739H55.7188V18.1021Z" fill="#4D6DDE"/>
<path d="M21.7188 60.3677H12.7188V66.4614H23.2812V70.2271H8.03125V47.4771H23.25V51.2739H12.7188V56.6958H21.7188V60.3677Z" fill="#147133"/>
<path d="M111.093 59.3677C111.093 61.6073 110.697 63.5708 109.906 65.2583C109.114 66.9458 107.978 68.2479 106.499 69.1646C105.031 70.0812 103.343 70.5396 101.437 70.5396C99.5514 70.5396 97.8691 70.0864 96.3899 69.1802C94.9107 68.2739 93.7649 66.9823 92.9524 65.3052C92.1399 63.6177 91.7284 61.6802 91.718 59.4927V58.3677C91.718 56.1281 92.1191 54.1593 92.9211 52.4614C93.7336 50.7531 94.8743 49.4458 96.343 48.5396C97.8222 47.6229 99.5097 47.1646 101.406 47.1646C103.301 47.1646 104.984 47.6229 106.452 48.5396C107.932 49.4458 109.072 50.7531 109.874 52.4614C110.687 54.1593 111.093 56.1229 111.093 58.3521V59.3677ZM106.343 58.3364C106.343 55.951 105.916 54.1385 105.062 52.8989C104.208 51.6593 102.989 51.0396 101.406 51.0396C99.8326 51.0396 98.6191 51.6541 97.7649 52.8833C96.9107 54.1021 96.4784 55.8937 96.468 58.2583V59.3677C96.468 61.6906 96.8951 63.4927 97.7493 64.7739C98.6034 66.0552 99.8326 66.6958 101.437 66.6958C103.01 66.6958 104.218 66.0812 105.062 64.8521C105.906 63.6125 106.333 61.8104 106.343 59.4458V58.3364Z" fill="#147133"/>
<path d="M58.3696 44.7959C49.2985 44.7959 41.9451 52.1512 41.9451 61.2196C41.9451 70.2928 49.2985 77.6481 58.3696 77.6481C67.4407 77.6481 74.7942 70.2928 74.7942 61.2196C74.7942 52.1512 67.4407 44.7959 58.3696 44.7959Z" fill="#FCC21B"/>
<path d="M54.8369 41.8041H61.9074C62.2343 41.8041 62.5369 41.6431 62.7272 41.3746C62.9126 41.1111 62.9565 40.7645 62.8443 40.4571L59.3066 30.8811C59.1602 30.4857 58.7894 30.2271 58.3697 30.2271C57.9501 30.2271 57.5792 30.4906 57.4329 30.8811L53.8952 40.4619C53.783 40.7694 53.8269 41.1111 54.0123 41.3795C54.2026 41.648 54.51 41.8041 54.8369 41.8041Z" fill="#FCC21B"/>
<path d="M74.599 49.9939C74.7845 50.1843 75.0431 50.2868 75.3017 50.2868C75.3603 50.2868 75.4188 50.2819 75.4774 50.2721C75.7994 50.2136 76.0678 50.0037 76.2093 49.706L80.4838 40.4277C80.6594 40.047 80.5765 39.6028 80.2837 39.3051C79.9861 39.0074 79.5372 38.9293 79.1565 39.1001L69.8854 43.3805C69.5877 43.5172 69.3779 43.7905 69.3194 44.1126C69.2608 44.4348 69.3682 44.7618 69.5926 44.9961L74.599 49.9939Z" fill="#FCC21B"/>
<path d="M88.7107 60.2874L79.1273 56.7537C78.8199 56.6415 78.4783 56.6854 78.2099 56.8709C77.9415 57.0563 77.7854 57.3589 77.7854 57.6859L77.7903 64.7581C77.7903 65.0851 77.9513 65.3926 78.2197 65.5781C78.3905 65.6903 78.5905 65.7538 78.7906 65.7538C78.9077 65.7538 79.0248 65.7343 79.137 65.6903L88.7205 62.1567C89.1108 62.0152 89.3743 61.6393 89.3743 61.2147C89.3646 60.8047 89.106 60.4338 88.7107 60.2874Z" fill="#FCC21B"/>
<path d="M76.2093 72.7429C76.1418 72.5965 76.0401 72.4686 75.9127 72.3701C75.7852 72.2715 75.6359 72.2052 75.4773 72.1767C75.1553 72.123 74.8235 72.2255 74.599 72.4549L69.5975 77.4577C69.3681 77.6871 69.2608 78.0189 69.3193 78.3411C69.3779 78.6583 69.5877 78.9365 69.8854 79.0732L79.1614 83.3487C79.2931 83.4121 79.4346 83.4366 79.581 83.4366C79.8396 83.4366 80.0934 83.3341 80.2837 83.1437C80.5813 82.846 80.6594 82.4018 80.4837 82.0211L76.2093 72.7429Z" fill="#FCC21B"/>
<path d="M61.9024 80.6403L54.832 80.6451C54.505 80.6451 54.2025 80.8062 54.0171 81.0746C53.8317 81.3431 53.7878 81.6847 53.8951 81.9873L57.4328 91.5731C57.5792 91.9636 57.95 92.2271 58.3696 92.2271C58.7893 92.2271 59.1601 91.9636 59.3065 91.5731L62.8442 81.9873C62.9564 81.6799 62.9125 81.3382 62.7271 81.0698C62.5368 80.8013 62.2342 80.6403 61.9024 80.6403Z" fill="#FCC21B"/>
<path d="M42.1403 72.4549C41.911 72.2255 41.5841 72.123 41.262 72.1767C40.94 72.2353 40.6667 72.4452 40.5301 72.7429L36.2556 82.0211C36.0799 82.4018 36.1629 82.8509 36.4605 83.1437C36.6045 83.2881 36.7894 83.3848 36.9902 83.4206C37.1909 83.4564 37.3978 83.4296 37.5828 83.3438L46.8589 79.0634C47.0052 78.996 47.133 78.8942 47.2316 78.7668C47.3301 78.6393 47.3965 78.4899 47.4249 78.3313C47.4834 78.0092 47.3761 77.6822 47.1468 77.4528L42.1403 72.4549Z" fill="#FCC21B"/>
<path d="M37.9585 65.7589C38.1585 65.7589 38.3586 65.6954 38.5294 65.5783C38.7978 65.3928 38.9588 65.0853 38.9588 64.7583L38.9539 57.6862C38.9539 57.5254 38.9152 57.3671 38.8409 57.2246C38.7666 57.0821 38.659 56.9596 38.5273 56.8676C38.3955 56.7756 38.2435 56.7168 38.0842 56.6961C37.9248 56.6755 37.7629 56.6936 37.612 56.7491L28.0286 60.2876C27.8367 60.358 27.6711 60.4856 27.554 60.6532C27.437 60.8208 27.3743 61.0203 27.3743 61.2247C27.3743 61.4291 27.437 61.6286 27.554 61.7962C27.6711 61.9638 27.8367 62.0914 28.0286 62.1618L37.6169 65.6954C37.7291 65.7394 37.8414 65.7589 37.9585 65.7589Z" fill="#FCC21B"/>
<path d="M40.5349 49.7058C40.6025 49.8521 40.7043 49.9798 40.8319 50.0782C40.9594 50.1767 41.1088 50.2428 41.2674 50.2711C41.4259 50.2994 41.589 50.2889 41.7427 50.2406C41.8963 50.1924 42.0361 50.1077 42.15 49.9938L47.1467 44.991C47.376 44.7568 47.4785 44.4297 47.4199 44.1076C47.3614 43.7904 47.1515 43.517 46.8539 43.3804L37.573 39.1049C37.1924 38.9292 36.7484 39.0121 36.4507 39.3099C36.153 39.6076 36.075 40.0517 36.2506 40.4324L40.5349 49.7058Z" fill="#FCC21B"/>
</svg>
